<svg xmlns="http://www.w3.org/2000/svg" viewBox="0 0 32 32" fill="none" aria-hidden="true">
  <rect width="32" height="32" rx="7" fill="#fff7ed"/>
  <!-- Letter F -->
  <path fill="#ea580c" d="M9 7h10a1.5 1.5 0 0 1 1.5 1.5v1.5A1.5 1.5 0 0 1 19 11.5h-6V14h5A1.5 1.5 0 0 1 19.5 15.5V17A1.5 1.5 0 0 1 18 18.5h-5V23.5A1.5 1.5 0 0 1 11.5 25H9a1.5 1.5 0 0 1-1.5-1.5V8.5A1.5 1.5 0 0 1 9 7Z"/>
  <!-- Cloche handle + leaf -->
  <path stroke="#c2410c" stroke-width="1.2" stroke-linecap="round" fill="none" d="M20.5 6.5c2.2 0 4 1.6 4 3.5"/>
  <path fill="#fb923c" d="M22.5 19c1.8-2.8 1.5-6.5-.8-8.8 2.8 1 4.6 4.2 4.2 7.5-.5 3.8-3.4 5.8-3.4 5.8s-.8-2.2 0-4.5Z"/>
</svg>
